<svg width="14" height="11" viewBox="0 0 14 11" fill="none" xmlns="http://www.w3.org/2000/svg">
<path fill-rule="evenodd" clip-rule="evenodd" d="M1.33333 0C0.596953 0 0 0.596953 0 1.33333V9.33333C0 10.0697 0.596953 10.6667 1.33333 10.6667H8C8.7364 10.6667 9.33333 10.0697 9.33333 9.33333V7.45793C9.33333 7.40467 9.39267 7.37287 9.437 7.4024L12.2969 9.309C12.7399 9.6044 13.3333 9.2868 13.3333 8.75433V1.91235C13.3333 1.37988 12.7399 1.06229 12.2969 1.35765L9.437 3.26423C9.39267 3.29377 9.33333 3.26201 9.33333 3.20877V1.33333C9.33333 0.596953 8.7364 0 8 0H1.33333Z" fill="#707070"/>
</svg>
