<svg width="41" height="41" viewBox="0 0 41 41" fill="none" xmlns="http://www.w3.org/2000/svg">
<path d="M15.619 0C24.2452 0 31.2381 6.99289 31.2381 15.619C31.2381 18.9914 30.1693 22.114 28.3522 24.6668L40.1259 36.4445L36.4445 40.1259L24.6668 28.3522C22.114 30.1693 18.9914 31.2381 15.619 31.2381C6.99289 31.2381 0 24.2452 0 15.619C0 6.99289 6.99289 0 15.619 0ZM15.619 5.20635C9.86828 5.20635 5.20635 9.86828 5.20635 15.619C5.20635 21.3699 9.86828 26.0318 15.619 26.0318C21.3699 26.0318 26.0318 21.3699 26.0318 15.619C26.0318 9.86828 21.3699 5.20635 15.619 5.20635Z" fill="#008294"/>
</svg>
